<?xml version="1.0" encoding="utf-8"?>
<svg version="1.1" xmlns:xlink="http://www.w3.org/1999/xlink" width="141px" height="13px" xmlns="http://www.w3.org/2000/svg">
  <g transform="matrix(1 0 0 1 -31 -10 )">
    <path d="M 9.167 12  L 8.2373 9.3516  L 3.8311 9.3516  L 2.9092 12  L 0.854500000000002 12  L 5.1514 0.625  L 6.9248 0.625  L 11.2295 12  L 9.167 12  Z M 6.0342 3.0391  L 4.3857 7.7578  L 7.6826 7.7578  L 6.0342 3.0391  Z M 12.9014 10.9609  C 12.292 10.1641  11.9873 9.0807  11.9873 7.7109  C 11.9873 6.4089  12.2894 5.3646  12.8936 4.5781  C 13.4977 3.7865  14.3076 3.3906  15.3232 3.3906  C 16.2191 3.3906  16.943 3.7031  17.4951 4.3281  L 17.4951 0  L 20 0  L 20 12  L 17.6748 12  L 17.5811 11.125  C 17.0133 11.8125  16.2555 12.1562  15.3076 12.1562  C 14.318 12.1562  13.516 11.7578  12.9014 10.9609  Z M 14.3857 5.6797  C 14.0524 6.1641  13.8857 6.8958  13.8857 7.875  C 13.8857 8.7344  14.0498 9.4062  14.3779 9.8906  C 14.7113 10.3698  15.1826 10.6094  15.792 10.6094  C 16.568 10.6094  17.1357 10.263  17.4951 9.5703  L 17.4951 5.9609  C 17.1462 5.2839  16.5837 4.9453  15.8076 4.9453  C 15.193 4.9453  14.7191 5.1901  14.3857 5.6797  Z M 21.9326 10.9609  C 21.3232 10.1641  21.0186 9.0807  21.0186 7.7109  C 21.0186 6.4089  21.3206 5.3646  21.9248 4.5781  C 22.529 3.7865  23.3389 3.3906  24.3545 3.3906  C 25.2503 3.3906  25.9743 3.7031  26.5264 4.3281  L 26.5264 0  L 29 0  L 29 12  L 26.7061 12  L 26.6123 11.125  C 26.0446 11.8125  25.2868 12.1562  24.3389 12.1562  C 23.3493 12.1562  22.5472 11.7578  21.9326 10.9609  Z M 23.417 5.6797  C 23.0837 6.1641  22.917 6.8958  22.917 7.875  C 22.917 8.7344  23.0811 9.4062  23.4092 9.8906  C 23.7425 10.3698  24.2139 10.6094  24.8232 10.6094  C 25.5993 10.6094  26.167 10.263  26.5264 9.5703  L 26.5264 5.9609  C 26.1774 5.2839  25.6149 4.9453  24.8389 4.9453  C 24.2243 4.9453  23.7503 5.1901  23.417 5.6797  Z M 35 0.625  L 37.1357 0.625  L 40.417 9.3438  L 43.6904 0.625  L 47 0.625  L 47 12  L 44.2764 12  L 44.2764 8.25  L 44.4717 3.2344  L 41.1123 12  L 39.6982 12  L 36.3467 3.2422  L 36.542 8.25  L 36.542 12  L 35 12  L 35 0.625  Z M 54.0264 11.7422  C 53.4639 12.0182  52.8311 12.1562  52.1279 12.1562  C 50.9248 12.1562  49.9482 11.7786  49.1982 11.0234  C 48.4535 10.263  48.0811 9.2526  48.0811 7.9922  L 48.0811 7.7578  C 48.0811 6.9141  48.2425 6.1615  48.5654 5.5  C 48.8936 4.8333  49.3519 4.3151  49.9404 3.9453  C 50.529 3.5755  51.1852 3.3906  51.9092 3.3906  C 53.0602 3.3906  53.9482 3.7578  54.5732 4.4922  C 55.2035 5.2266  55.5186 6.2656  55.5186 7.6094  L 55.5186 8.375  L 49.9951 8.375  C 50.0524 9.0729  50.2842 9.625  50.6904 10.0312  C 51.1019 10.4375  51.6175 10.6406  52.2373 10.6406  C 53.1071 10.6406  53.8154 10.2891  54.3623 9.5859  L 55.3857 10.5625  C 55.0472 11.0677  54.5941 11.4609  54.0264 11.7422  Z M 53.1357 5.4062  C 52.8389 5.0781  52.4274 4.9141  51.9014 4.9141  C 51.3805 4.9141  50.9587 5.0964  50.6357 5.4609  C 50.318 5.8255  50.1149 6.3333  50.0264 6.9844  L 53.6436 6.9844  L 53.6436 6.8438  C 53.6019 6.2083  53.4326 5.7292  53.1357 5.4062  Z M 63.9873 12  L 62.0498 12  C 61.9665 11.8385  61.8936 11.5755  61.8311 11.2109  C 61.2269 11.8411  60.4873 12.1562  59.6123 12.1562  C 58.7633 12.1562  58.0706 11.9141  57.5342 11.4297  C 56.9977 10.9453  56.7295 10.3464  56.7295 9.6328  C 56.7295 8.7318  57.0628 8.0417  57.7295 7.5625  C 58.4014 7.0781  59.3597 6.8359  60.6045 6.8359  L 61.7686 6.8359  L 61.7686 6.2812  C 61.7686 5.8438  61.6462 5.4948  61.4014 5.2344  C 61.1566 4.9688  60.7842 4.8359  60.2842 4.8359  C 59.8519 4.8359  59.4977 4.9453  59.2217 5.1641  C 58.9456 5.3776  58.8076 5.651  58.8076 5.9844  L 56.9092 5.9844  C 56.9092 5.5208  57.0628 5.0885  57.3701 4.6875  C 57.6774 4.2812  58.0941 3.9635  58.6201 3.7344  C 59.1514 3.5052  59.7425 3.3906  60.3936 3.3906  C 61.3831 3.3906  62.1722 3.6406  62.7607 4.1406  C 63.3493 4.6354  63.6514 5.3333  63.667 6.2344  L 63.667 10.0469  C 63.667 10.8073  63.7738 11.4141  63.9873 11.8672  L 63.9873 12  Z M 58.9873 10.3125  C 59.2321 10.526  59.5576 10.6328  59.9639 10.6328  C 60.3389 10.6328  60.6904 10.5417  61.0186 10.3594  C 61.3519 10.1771  61.6019 9.9323  61.7686 9.625  L 61.7686 8.0312  L 60.7451 8.0312  C 60.042 8.0312  59.5133 8.1536  59.1592 8.3984  C 58.805 8.6432  58.6279 8.9896  58.6279 9.4375  C 58.6279 9.8021  58.7477 10.0938  58.9873 10.3125  Z M 70.003 10.4531  C 70.263 10.2604  70.394 10.0104  70.394 9.7031  C 70.394 9.3646  70.253 9.1068  69.9717 8.9297  C 69.6956 8.7526  69.2347 8.5964  68.5889 8.4609  C 67.943 8.3255  67.404 8.1536  66.9717 7.9453  C 66.0238 7.487  65.5498 6.8229  65.5498 5.9531  C 65.5498 5.224  65.8571 4.6146  66.4717 4.125  C 67.0863 3.6354  67.8675 3.3906  68.8154 3.3906  C 69.8258 3.3906  70.641 3.6406  71.261 4.1406  C 71.886 4.6406  72.198 5.2891  72.198 6.0859  L 70.3 6.0859  C 70.3 5.7214  70.164 5.4193  69.8936 5.1797  C 69.6227 4.9349  69.2633 4.8125  68.8154 4.8125  C 68.3988 4.8125  68.0576 4.9089  67.792 5.1016  C 67.5316 5.2943  67.4014 5.5521  67.4014 5.875  C 67.4014 6.1667  67.5238 6.3932  67.7686 6.5547  C 68.0133 6.7161  68.5081 6.8802  69.2529 7.0469  C 69.9977 7.2083  70.581 7.4036  71.003 7.6328  C 71.43 7.8568  71.745 8.1276  71.948 8.4453  C 72.157 8.763  72.261 9.1484  72.261 9.6016  C 72.261 10.362  71.946 10.9792  71.315 11.4531  C 70.685 11.9219  69.8597 12.1562  68.8389 12.1562  C 68.1462 12.1562  67.529 12.0312  66.9873 11.7812  C 66.4456 11.5312  66.0238 11.1875  65.7217 10.75  C 65.4196 10.3125  65.2686 9.8411  65.2686 9.3359  L 67.1123 9.3359  C 67.1383 9.7839  67.3076 10.1302  67.6201 10.375  C 67.9326 10.6146  68.3467 10.7344  68.8623 10.7344  C 69.3623 10.7344  69.7425 10.6406  70.003 10.4531  Z M 79.089 12  L 79.042 11.1719  C 78.485 11.8281  77.693 12.1562  76.667 12.1562  C 75.75 12.1562  75.055 11.888  74.581 11.3516  C 74.112 10.8151  73.878 10.0391  73.878 9.0234  L 73.878 3.5469  L 75.776 3.5469  L 75.776 9  C 75.776 10.0729  76.222 10.6094  77.112 10.6094  C 78.034 10.6094  78.657 10.2786  78.979 9.6172  L 78.979 3.5469  L 80.878 3.5469  L 80.878 12  L 79.089 12  Z M 87.245 3.5  L 87.237 5.2812  C 86.987 5.2396  86.729 5.2188  86.464 5.2188  C 85.594 5.2188  85.008 5.5521  84.706 6.2188  L 84.706 12  L 82.808 12  L 82.808 3.5469  L 84.62 3.5469  L 84.667 4.4922  C 85.125 3.7578  85.761 3.3906  86.573 3.3906  C 86.844 3.3906  87.068 3.4271  87.245 3.5  Z M 93.901 11.7422  C 93.339 12.0182  92.706 12.1562  92.003 12.1562  C 90.8 12.1562  89.823 11.7786  89.073 11.0234  C 88.328 10.263  87.956 9.2526  87.956 7.9922  L 87.956 7.7578  C 87.956 6.9141  88.118 6.1615  88.44 5.5  C 88.769 4.8333  89.227 4.3151  89.815 3.9453  C 90.404 3.5755  91.06 3.3906  91.784 3.3906  C 92.935 3.3906  93.823 3.7578  94.448 4.4922  C 95.078 5.2266  95.394 6.2656  95.394 7.6094  L 95.394 8.375  L 89.87 8.375  C 89.927 9.0729  90.159 9.625  90.565 10.0312  C 90.977 10.4375  91.493 10.6406  92.112 10.6406  C 92.982 10.6406  93.69 10.2891  94.237 9.5859  L 95.261 10.5625  C 94.922 11.0677  94.469 11.4609  93.901 11.7422  Z M 93.011 5.4062  C 92.714 5.0781  92.302 4.9141  91.776 4.9141  C 91.256 4.9141  90.834 5.0964  90.511 5.4609  C 90.193 5.8255  89.99 6.3333  89.901 6.9844  L 93.519 6.9844  L 93.519 6.8438  C 93.477 6.2083  93.308 5.7292  93.011 5.4062  Z M 96.87 3.5469  L 98.659 3.5469  L 98.714 4.4297  C 99.308 3.737  100.12 3.3906  101.151 3.3906  C 102.282 3.3906  103.055 3.8229  103.472 4.6875  C 104.086 3.8229  104.951 3.3906  106.065 3.3906  C 106.998 3.3906  107.69 3.6484  108.144 4.1641  C 108.602 4.6797  108.836 5.4401  108.847 6.4453  L 108.847 12  L 106.948 12  L 106.948 6.5  C 106.948 5.9635  106.831 5.5703  106.597 5.3203  C 106.362 5.0703  105.974 4.9453  105.433 4.9453  C 105 4.9453  104.646 5.0625  104.37 5.2969  C 104.099 5.526  103.909 5.8281  103.8 6.2031  L 103.808 12  L 101.909 12  L 101.909 6.4375  C 101.883 5.4427  101.375 4.9453  100.386 4.9453  C 99.625 4.9453  99.086 5.2552  98.769 5.875  L 98.769 12  L 96.87 12  L 96.87 3.5469  Z M 116.417 11.7422  C 115.854 12.0182  115.222 12.1562  114.519 12.1562  C 113.315 12.1562  112.339 11.7786  111.589 11.0234  C 110.844 10.263  110.472 9.2526  110.472 7.9922  L 110.472 7.7578  C 110.472 6.9141  110.633 6.1615  110.956 5.5  C 111.284 4.8333  111.743 4.3151  112.331 3.9453  C 112.92 3.5755  113.576 3.3906  114.3 3.3906  C 115.451 3.3906  116.339 3.7578  116.964 4.4922  C 117.594 5.2266  117.909 6.2656  117.909 7.6094  L 117.909 8.375  L 112.386 8.375  C 112.443 9.0729  112.675 9.625  113.081 10.0312  C 113.493 10.4375  114.008 10.6406  114.628 10.6406  C 115.498 10.6406  116.206 10.2891  116.753 9.5859  L 117.776 10.5625  C 117.438 11.0677  116.985 11.4609  116.417 11.7422  Z M 115.526 5.4062  C 115.229 5.0781  114.818 4.9141  114.292 4.9141  C 113.771 4.9141  113.349 5.0964  113.026 5.4609  C 112.709 5.8255  112.506 6.3333  112.417 6.9844  L 116.034 6.9844  L 116.034 6.8438  C 115.993 6.2083  115.823 5.7292  115.526 5.4062  Z M 119.362 3.5469  L 121.151 3.5469  L 121.206 4.5234  C 121.831 3.7682  122.651 3.3906  123.667 3.3906  C 125.427 3.3906  126.323 4.3984  126.354 6.4141  L 126.354 12  L 124.456 12  L 124.456 6.5234  C 124.456 5.987  124.339 5.5911  124.104 5.3359  C 123.875 5.0755  123.498 4.9453  122.972 4.9453  C 122.206 4.9453  121.636 5.2917  121.261 5.9844  L 121.261 12  L 119.362 12  L 119.362 3.5469  Z M 128.776 1.4922  L 130.675 1.4922  L 130.675 3.5469  L 132.167 3.5469  L 132.167 4.9531  L 130.675 4.9531  L 130.675 9.6719  C 130.675 9.9948  130.737 10.2292  130.862 10.375  C 130.993 10.5156  131.222 10.5859  131.55 10.5859  C 131.769 10.5859  131.99 10.5599  132.214 10.5078  L 132.214 11.9766  C 131.782 12.0964  131.365 12.1562  130.964 12.1562  C 129.506 12.1562  128.776 11.3516  128.776 9.7422  L 128.776 4.9531  L 127.386 4.9531  L 127.386 3.5469  L 128.776 3.5469  L 128.776 1.4922  Z M 137.972 10.4531  C 138.232 10.2604  138.362 10.0104  138.362 9.7031  C 138.362 9.3646  138.222 9.1068  137.94 8.9297  C 137.664 8.7526  137.203 8.5964  136.558 8.4609  C 135.912 8.3255  135.373 8.1536  134.94 7.9453  C 133.993 7.487  133.519 6.8229  133.519 5.9531  C 133.519 5.224  133.826 4.6146  134.44 4.125  C 135.055 3.6354  135.836 3.3906  136.784 3.3906  C 137.795 3.3906  138.61 3.6406  139.229 4.1406  C 139.854 4.6406  140.167 5.2891  140.167 6.0859  L 138.269 6.0859  C 138.269 5.7214  138.133 5.4193  137.862 5.1797  C 137.591 4.9349  137.232 4.8125  136.784 4.8125  C 136.368 4.8125  136.026 4.9089  135.761 5.1016  C 135.5 5.2943  135.37 5.5521  135.37 5.875  C 135.37 6.1667  135.493 6.3932  135.737 6.5547  C 135.982 6.7161  136.477 6.8802  137.222 7.0469  C 137.966 7.2083  138.55 7.4036  138.972 7.6328  C 139.399 7.8568  139.714 8.1276  139.917 8.4453  C 140.125 8.763  140.229 9.1484  140.229 9.6016  C 140.229 10.362  139.914 10.9792  139.284 11.4531  C 138.654 11.9219  137.828 12.1562  136.808 12.1562  C 136.115 12.1562  135.498 12.0312  134.956 11.7812  C 134.414 11.5312  133.993 11.1875  133.69 10.75  C 133.388 10.3125  133.237 9.8411  133.237 9.3359  L 135.081 9.3359  C 135.107 9.7839  135.276 10.1302  135.589 10.375  C 135.901 10.6146  136.315 10.7344  136.831 10.7344  C 137.331 10.7344  137.711 10.6406  137.972 10.4531  Z " fill-rule="nonzero" fill="#318ed8" stroke="none" transform="matrix(1 0 0 1 31 10 )" />
  </g>
</svg>