<?xml version="1.0" encoding="utf-8"?>
<svg version="1.1" xmlns:xlink="http://www.w3.org/1999/xlink" width="180px" height="34px" xmlns="http://www.w3.org/2000/svg">
  <g>
    <path d="M 5.63086 0  L 5.63086 2  L 174.001 2  L 174.001 0  L 5.63086 0  Z M 179 5  L 177 5  L 177 29  L 179 29  L 179 5  Z M 174.001 34  L 174.001 32  L 5.63086 32  L 5.63086 34  L 174.001 34  Z M 1 29  L 3 29  L 3 5  L 1 5  L 1 29  Z M 5.63086 34  L 5.63086 32  C 3.97401 32  2.63086 30.6569  2.63086 29  L 0.630859 29  C 0.630859 31.7614  2.86944 34  5.63086 34  Z M 179.001 29  L 177.001 29  C 177.001 30.6569  175.657 32  174.001 32  L 174.001 34  C 176.762 34  179.001 31.7614  179.001 29  Z M 174.001 0  L 174.001 2  C 175.657 2  177.001 3.34315  177.001 5  L 179.001 5  C 179.001 2.23858  176.762 0  174.001 0  Z M 5.63086 2  L 5.63086 0  C 2.86944 0  0.630859 2.23858  0.630859 5  L 2.63086 5  C 2.63086 3.34315  3.97401 2  5.63086 2  Z " fill-rule="nonzero" fill="#7fc1f5" stroke="none" />
  </g>
</svg>