<?xml version="1.0" encoding="utf-8"?>
<svg version="1.1" xmlns:xlink="http://www.w3.org/1999/xlink" width="119px" height="13px" xmlns="http://www.w3.org/2000/svg">
  <g transform="matrix(1 0 0 1 -34 -10 )">
    <path d="M 6.875 12  L 4.5938 7.6172  L 2.3906 7.6172  L 2.3906 12  L 1 12  L 1 0.625  L 4.4141 0.625  C 5.7266 0.625  6.7396 0.919269999999999  7.4531 1.5078  C 8.1667 2.0964  8.5234 2.9479  8.5234 4.0625  C 8.5234 4.8229  8.3385 5.4609  7.9688 5.9766  C 7.6042 6.487  7.0938 6.8802  6.4375 7.1562  L 8.9922 11.8984  L 8.9922 12  L 6.875 12  Z M 2.3906 2.2188  L 2.3906 6.0312  L 4.4219 6.0312  C 5.0885 6.0312  5.6094 5.8646  5.9844 5.5312  C 6.3594 5.1927  6.5469 4.7318  6.5469 4.1484  C 6.5469 3.5391  6.3724 3.0677  6.0234 2.7344  C 5.6797 2.401  5.1641 2.2292  4.4766 2.2188  L 2.3906 2.2188  Z M 15.8359 11.7422  C 15.2734 12.0182  14.6406 12.1562  13.9375 12.1562  C 12.7344 12.1562  11.7578 11.7786  11.0078 11.0234  C 10.263 10.263  9.8906 9.2526  9.8906 7.9922  L 9.8906 7.7578  C 9.8906 6.9141  10.0521 6.1615  10.375 5.5  C 10.7031 4.8333  11.1615 4.3151  11.75 3.9453  C 12.3385 3.5755  12.9948 3.3906  13.7188 3.3906  C 14.8698 3.3906  15.7578 3.7578  16.3828 4.4922  C 17.013 5.2266  17.3281 6.2656  17.3281 7.6094  L 17.3281 8.375  L 11.8047 8.375  C 11.862 9.0729  12.0938 9.625  12.5 10.0312  C 12.9115 10.4375  13.4271 10.6406  14.0469 10.6406  C 14.9167 10.6406  15.625 10.2891  16.1719 9.5859  L 17.1953 10.5625  C 16.8568 11.0677  16.4036 11.4609  15.8359 11.7422  Z M 14.9453 5.4062  C 14.6484 5.0781  14.237 4.9141  13.7109 4.9141  C 13.1901 4.9141  12.7682 5.0964  12.4453 5.4609  C 12.1276 5.8255  11.9245 6.3333  11.8359 6.9844  L 15.4531 6.9844  L 15.4531 6.8438  C 15.4115 6.2083  15.2422 5.7292  14.9453 5.4062  Z M 23.1562 10.4531  C 23.4167 10.2604  23.5469 10.0104  23.5469 9.7031  C 23.5469 9.3646  23.4062 9.1068  23.125 8.9297  C 22.849 8.7526  22.388 8.5964  21.7422 8.4609  C 21.0964 8.3255  20.5573 8.1536  20.125 7.9453  C 19.1771 7.487  18.7031 6.8229  18.7031 5.9531  C 18.7031 5.224  19.0104 4.6146  19.625 4.125  C 20.2396 3.6354  21.0208 3.3906  21.9688 3.3906  C 22.9792 3.3906  23.7943 3.6406  24.4141 4.1406  C 25.0391 4.6406  25.3516 5.2891  25.3516 6.0859  L 23.4531 6.0859  C 23.4531 5.7214  23.3177 5.4193  23.0469 5.1797  C 22.776 4.9349  22.4167 4.8125  21.9688 4.8125  C 21.5521 4.8125  21.2109 4.9089  20.9453 5.1016  C 20.6849 5.2943  20.5547 5.5521  20.5547 5.875  C 20.5547 6.1667  20.6771 6.3932  20.9219 6.5547  C 21.1667 6.7161  21.6615 6.8802  22.4062 7.0469  C 23.151 7.2083  23.7344 7.4036  24.1562 7.6328  C 24.5833 7.8568  24.8984 8.1276  25.1016 8.4453  C 25.3099 8.763  25.4141 9.1484  25.4141 9.6016  C 25.4141 10.362  25.099 10.9792  24.4688 11.4531  C 23.8385 11.9219  23.013 12.1562  21.9922 12.1562  C 21.2995 12.1562  20.6823 12.0312  20.1406 11.7812  C 19.599 11.5312  19.1771 11.1875  18.875 10.75  C 18.5729 10.3125  18.4219 9.8411  18.4219 9.3359  L 20.2656 9.3359  C 20.2917 9.7839  20.4609 10.1302  20.7734 10.375  C 21.0859 10.6146  21.5 10.7344  22.0156 10.7344  C 22.5156 10.7344  22.8958 10.6406  23.1562 10.4531  Z M 26.7188 7.7891  L 26.7188 7.6953  C 26.7188 6.8672  26.8828 6.1224  27.2109 5.4609  C 27.5391 4.7943  28 4.2839  28.5938 3.9297  C 29.1875 3.5703  29.8698 3.3906  30.6406 3.3906  C 31.7812 3.3906  32.7057 3.7578  33.4141 4.4922  C 34.1276 5.2266  34.513 6.2005  34.5703 7.4141  L 34.5781 7.8594  C 34.5781 8.6927  34.4167 9.4375  34.0938 10.0938  C 33.776 10.75  33.3177 11.2578  32.7188 11.6172  C 32.125 11.9766  31.4375 12.1562  30.6562 12.1562  C 29.4635 12.1562  28.5078 11.7604  27.7891 10.9688  C 27.0755 10.1719  26.7188 9.112  26.7188 7.7891  Z M 29.1641 5.6562  C 28.7995 6.1458  28.6172 6.8802  28.6172 7.8594  C 28.6172 8.7292  28.7969 9.4115  29.1562 9.9062  C 29.5156 10.3958  30.0156 10.6406  30.6562 10.6406  C 31.2969 10.6406  31.7943 10.3906  32.1484 9.8906  C 32.5078 9.3906  32.6875 8.6589  32.6875 7.6953  C 32.6875 6.8411  32.5026 6.1641  32.1328 5.6641  C 31.7682 5.1641  31.2708 4.9141  30.6406 4.9141  C 30.0208 4.9141  29.5286 5.1615  29.1641 5.6562  Z M 39 0  L 39 12  L 37 12  L 37 0  L 39 0  Z M 41.4453 3.5469  L 43.2578 9.5938  L 45.0469 3.5469  L 47.0078 3.5469  L 44.0781 12  L 42.4297 12  L 39.4766 3.5469  L 41.4453 3.5469  Z M 53.7109 11.7422  C 53.1484 12.0182  52.5156 12.1562  51.8125 12.1562  C 50.6094 12.1562  49.6328 11.7786  48.8828 11.0234  C 48.138 10.263  47.7656 9.2526  47.7656 7.9922  L 47.7656 7.7578  C 47.7656 6.9141  47.9271 6.1615  48.25 5.5  C 48.5781 4.8333  49.0365 4.3151  49.625 3.9453  C 50.2135 3.5755  50.8698 3.3906  51.5938 3.3906  C 52.7448 3.3906  53.6328 3.7578  54.2578 4.4922  C 54.888 5.2266  55.2031 6.2656  55.2031 7.6094  L 55.2031 8.375  L 49.6797 8.375  C 49.737 9.0729  49.9688 9.625  50.375 10.0312  C 50.7865 10.4375  51.3021 10.6406  51.9219 10.6406  C 52.7917 10.6406  53.5 10.2891  54.0469 9.5859  L 55.0703 10.5625  C 54.7318 11.0677  54.2786 11.4609  53.7109 11.7422  Z M 52.8203 5.4062  C 52.5234 5.0781  52.112 4.9141  51.5859 4.9141  C 51.0651 4.9141  50.6432 5.0964  50.3203 5.4609  C 50.0026 5.8255  49.7995 6.3333  49.7109 6.9844  L 53.3281 6.9844  L 53.3281 6.8438  C 53.2865 6.2083  53.1172 5.7292  52.8203 5.4062  Z M 67.656 12  L 65.7188 12  C 65.6354 11.8385  65.5625 11.5755  65.5 11.2109  C 64.8958 11.8411  64.1562 12.1562  63.2812 12.1562  C 62.4323 12.1562  61.7396 11.9141  61.2031 11.4297  C 60.6667 10.9453  60.3984 10.3464  60.3984 9.6328  C 60.3984 8.7318  60.7318 8.0417  61.3984 7.5625  C 62.0703 7.0781  63.0286 6.8359  64.2734 6.8359  L 65.4375 6.8359  L 65.4375 6.2812  C 65.4375 5.8438  65.3151 5.4948  65.0703 5.2344  C 64.8255 4.9688  64.4531 4.8359  63.9531 4.8359  C 63.5208 4.8359  63.1667 4.9453  62.8906 5.1641  C 62.6146 5.3776  62.4766 5.651  62.4766 5.9844  L 60.5781 5.9844  C 60.5781 5.5208  60.7318 5.0885  61.0391 4.6875  C 61.3464 4.2812  61.763 3.9635  62.2891 3.7344  C 62.8203 3.5052  63.4115 3.3906  64.0625 3.3906  C 65.0521 3.3906  65.8411 3.6406  66.4297 4.1406  C 67.018 4.6354  67.32 5.3333  67.336 6.2344  L 67.336 10.0469  C 67.336 10.8073  67.443 11.4141  67.656 11.8672  L 67.656 12  Z M 62.6562 10.3125  C 62.901 10.526  63.2266 10.6328  63.6328 10.6328  C 64.0078 10.6328  64.3594 10.5417  64.6875 10.3594  C 65.0208 10.1771  65.2708 9.9323  65.4375 9.625  L 65.4375 8.0312  L 64.4141 8.0312  C 63.7109 8.0312  63.1823 8.1536  62.8281 8.3984  C 62.474 8.6432  62.2969 8.9896  62.2969 9.4375  C 62.2969 9.8021  62.4167 10.0938  62.6562 10.3125  Z M 73.672 10.4531  C 73.932 10.2604  74.062 10.0104  74.062 9.7031  C 74.062 9.3646  73.922 9.1068  73.641 8.9297  C 73.365 8.7526  72.904 8.5964  72.258 8.4609  C 71.612 8.3255  71.073 8.1536  70.641 7.9453  C 69.693 7.487  69.219 6.8229  69.219 5.9531  C 69.219 5.224  69.526 4.6146  70.141 4.125  C 70.755 3.6354  71.536 3.3906  72.484 3.3906  C 73.495 3.3906  74.31 3.6406  74.93 4.1406  C 75.555 4.6406  75.867 5.2891  75.867 6.0859  L 73.969 6.0859  C 73.969 5.7214  73.833 5.4193  73.562 5.1797  C 73.292 4.9349  72.932 4.8125  72.484 4.8125  C 72.068 4.8125  71.727 4.9089  71.461 5.1016  C 71.201 5.2943  71.07 5.5521  71.07 5.875  C 71.07 6.1667  71.193 6.3932  71.438 6.5547  C 71.682 6.7161  72.177 6.8802  72.922 7.0469  C 73.667 7.2083  74.25 7.4036  74.672 7.6328  C 75.099 7.8568  75.414 8.1276  75.617 8.4453  C 75.826 8.763  75.93 9.1484  75.93 9.6016  C 75.93 10.362  75.615 10.9792  74.984 11.4531  C 74.354 11.9219  73.529 12.1562  72.508 12.1562  C 71.815 12.1562  71.198 12.0312  70.656 11.7812  C 70.115 11.5312  69.693 11.1875  69.391 10.75  C 69.089 10.3125  68.938 9.8411  68.938 9.3359  L 70.781 9.3359  C 70.807 9.7839  70.977 10.1302  71.289 10.375  C 71.602 10.6146  72.016 10.7344  72.531 10.7344  C 73.031 10.7344  73.411 10.6406  73.672 10.4531  Z M 88.312 5.6016  L 88.312 7.1797  L 83.734 7.1797  L 83.734 12  L 81 12  L 81 0.625  L 88.984 0.625  L 88.984 2.2188  L 83.734 2.2188  L 83.734 5.6016  L 88.312 5.6016  Z M 97.094 12  L 95.156 12  C 95.073 11.8385  95 11.5755  94.938 11.2109  C 94.333 11.8411  93.594 12.1562  92.719 12.1562  C 91.87 12.1562  91.177 11.9141  90.641 11.4297  C 90.104 10.9453  89.836 10.3464  89.836 9.6328  C 89.836 8.7318  90.169 8.0417  90.836 7.5625  C 91.508 7.0781  92.466 6.8359  93.711 6.8359  L 94.875 6.8359  L 94.875 6.2812  C 94.875 5.8438  94.753 5.4948  94.508 5.2344  C 94.263 4.9688  93.891 4.8359  93.391 4.8359  C 92.958 4.8359  92.604 4.9453  92.328 5.1641  C 92.052 5.3776  91.914 5.651  91.914 5.9844  L 90.016 5.9844  C 90.016 5.5208  90.169 5.0885  90.477 4.6875  C 90.784 4.2812  91.201 3.9635  91.727 3.7344  C 92.258 3.5052  92.849 3.3906  93.5 3.3906  C 94.49 3.3906  95.279 3.6406  95.867 4.1406  C 96.456 4.6354  96.758 5.3333  96.773 6.2344  L 96.773 10.0469  C 96.773 10.8073  96.88 11.4141  97.094 11.8672  L 97.094 12  Z M 92.094 10.3125  C 92.339 10.526  92.664 10.6328  93.07 10.6328  C 93.445 10.6328  93.797 10.5417  94.125 10.3594  C 94.458 10.1771  94.708 9.9323  94.875 9.625  L 94.875 8.0312  L 93.852 8.0312  C 93.148 8.0312  92.62 8.1536  92.266 8.3984  C 91.911 8.6432  91.734 8.9896  91.734 9.4375  C 91.734 9.8021  91.854 10.0938  92.094 10.3125  Z M 100 0  L 100 12  L 98 12  L 98 0  L 100 0  Z M 107.203 10.4531  C 107.464 10.2604  107.594 10.0104  107.594 9.7031  C 107.594 9.3646  107.453 9.1068  107.172 8.9297  C 106.896 8.7526  106.435 8.5964  105.789 8.4609  C 105.143 8.3255  104.604 8.1536  104.172 7.9453  C 103.224 7.487  102.75 6.8229  102.75 5.9531  C 102.75 5.224  103.057 4.6146  103.672 4.125  C 104.286 3.6354  105.068 3.3906  106.016 3.3906  C 107.026 3.3906  107.841 3.6406  108.461 4.1406  C 109.086 4.6406  109.398 5.2891  109.398 6.0859  L 107.5 6.0859  C 107.5 5.7214  107.365 5.4193  107.094 5.1797  C 106.823 4.9349  106.464 4.8125  106.016 4.8125  C 105.599 4.8125  105.258 4.9089  104.992 5.1016  C 104.732 5.2943  104.602 5.5521  104.602 5.875  C 104.602 6.1667  104.724 6.3932  104.969 6.5547  C 105.214 6.7161  105.708 6.8802  106.453 7.0469  C 107.198 7.2083  107.781 7.4036  108.203 7.6328  C 108.63 7.8568  108.945 8.1276  109.148 8.4453  C 109.357 8.763  109.461 9.1484  109.461 9.6016  C 109.461 10.362  109.146 10.9792  108.516 11.4531  C 107.885 11.9219  107.06 12.1562  106.039 12.1562  C 105.346 12.1562  104.729 12.0312  104.188 11.7812  C 103.646 11.5312  103.224 11.1875  102.922 10.75  C 102.62 10.3125  102.469 9.8411  102.469 9.3359  L 104.312 9.3359  C 104.339 9.7839  104.508 10.1302  104.82 10.375  C 105.133 10.6146  105.547 10.7344  106.062 10.7344  C 106.562 10.7344  106.943 10.6406  107.203 10.4531  Z M 116.742 11.7422  C 116.18 12.0182  115.547 12.1562  114.844 12.1562  C 113.641 12.1562  112.664 11.7786  111.914 11.0234  C 111.169 10.263  110.797 9.2526  110.797 7.9922  L 110.797 7.7578  C 110.797 6.9141  110.958 6.1615  111.281 5.5  C 111.609 4.8333  112.068 4.3151  112.656 3.9453  C 113.245 3.5755  113.901 3.3906  114.625 3.3906  C 115.776 3.3906  116.664 3.7578  117.289 4.4922  C 117.919 5.2266  118.234 6.2656  118.234 7.6094  L 118.234 8.375  L 112.711 8.375  C 112.768 9.0729  113 9.625  113.406 10.0312  C 113.818 10.4375  114.333 10.6406  114.953 10.6406  C 115.823 10.6406  116.531 10.2891  117.078 9.5859  L 118.102 10.5625  C 117.763 11.0677  117.31 11.4609  116.742 11.7422  Z M 115.852 5.4062  C 115.555 5.0781  115.143 4.9141  114.617 4.9141  C 114.096 4.9141  113.674 5.0964  113.352 5.4609  C 113.034 5.8255  112.831 6.3333  112.742 6.9844  L 116.359 6.9844  L 116.359 6.8438  C 116.318 6.2083  116.148 5.7292  115.852 5.4062  Z " fill-rule="nonzero" fill="#318ed8" stroke="none" transform="matrix(1 0 0 1 34 10 )" />
  </g>
</svg>