<?xml version="1.0" encoding="utf-8"?>
<svg version="1.1" xmlns:xlink="http://www.w3.org/1999/xlink" width="18px" height="18px" xmlns="http://www.w3.org/2000/svg">
  <g transform="matrix(1 0 0 1 -558 -1555 )">
    <path d="M 8.9996 18  C 2.2631 13.9542001480261  -2.13524 6.20230043164961  1.0679 2.09610058188565  C 2.8436 -0.182019334763395  5.6471 -0.471019324189576  7.6311 0.594680636819011  C 8.156 0.876610626503866  8.6236 1.25330061272168  8.9996 1.7131005958987  C 9.3752 1.25350061271436  9.8424 0.876940626491792  10.3668 0.595050636805474  C 12.3506 -0.471089324187016  15.1546 -0.182279334753883  16.9313 2.09610058188565  C 20.1344 6.20230043164961  15.7361 13.9542001480261  8.9996 18  Z M 8.9996 15.3175000981463  C 11.505 13.5580001625222  13.5282 11.2668002463517  14.6895 9.04610032760178  C 12.6763 9.42980031356311  11.0954 8.58860034434061  9.542 7.76200037458392  C 7.4923 6.67130041449003  5.4906 5.60610045346314  2.6068 7.41450038729812  C 2.7729 7.91590036895309  3.0015 8.45490034923237  3.3016 9.03070032816523  C 4.4616 11.2562002467395  6.4884 13.5540001626685  8.9996 15.3175000981463  Z " fill-rule="nonzero" fill="#ffffff" stroke="none" transform="matrix(1 0 0 1 558 1555 )" />
  </g>
</svg>