<?xml version="1.0" encoding="utf-8"?>
<svg version="1.1" xmlns:xlink="http://www.w3.org/1999/xlink" width="19px" height="19px" xmlns="http://www.w3.org/2000/svg">
  <g transform="matrix(1 0 0 1 -9 -9 )">
    <path d="M 0.90039 9  C 0.90039 13.4735  4.5269 17.1  9.0004 17.1  C 13.4739 17.1  17.1004 13.4735  17.1004 9  C 17.1004 4.5265  13.4739 0.89996  9.0004 0.89996  C 4.5269 0.89996  0.90039 4.5265  0.90039 9  Z M 17.0954 14.4  C 18.1387 14.4  18.8902 14.9852  18.8902 15.8764  C 18.8902 16.554  18.4055 17.1317  17.2151 17.9032  L 18.9235 17.9032  L 18.9235 18.9  L 15.4468 18.9  L 15.4468 18.0096  C 17.368 16.6205  17.7272 16.3145  17.7272 15.8764  C 17.7272 15.5697  17.4412 15.4109  17.0954 15.4109  C 16.6232 15.4109  16.2516 15.5971  15.9323 15.8955  L 15.3005 15.1382  C 15.7727 14.6194  16.4769 14.4  17.0954 14.4  Z M 9.0004 3.15  C 12.2313 3.15  14.8504 5.7691  14.8504 9  C 14.8504 12.2308  12.2313 14.85  9.0004 14.85  C 5.7695 14.85  3.1504 12.2308  3.1504 9  C 3.1504 5.7691  5.7695 3.15  9.0004 3.15  Z " fill-rule="nonzero" fill="#ffffff" stroke="none" transform="matrix(1 0 0 1 9 9 )" />
  </g>
</svg>