<?xml version="1.0" encoding="utf-8"?>
<svg version="1.1" xmlns:xlink="http://www.w3.org/1999/xlink" width="19px" height="19px" xmlns="http://www.w3.org/2000/svg">
  <g transform="matrix(1 0 0 1 -9 -11 )">
    <path d="M 0.90039 8.9999  C 0.90039 13.4734  4.5269 17.0999  9.0004 17.0999  C 13.4739 17.0999  17.1004 13.4734  17.1004 8.9999  C 17.1004 4.5264  13.4739 0.899900000000001  9.0004 0.899900000000001  C 4.5269 0.899900000000001  0.90039 4.5264  0.90039 8.9999  Z M 17.0952 14.3999  C 18.1386 14.3999  18.8901 14.9852  18.8901 15.8763  C 18.8901 16.5539  18.4054 17.1317  17.2149 17.9031  L 18.9233 17.9031  L 18.9233 18.8999  L 15.4467 18.8999  L 15.4467 18.0095  C 17.3679 16.6204  17.727 16.3145  17.727 15.8763  C 17.727 15.5696  17.4411 15.4108  17.0952 15.4108  C 16.623 15.4108  16.2514 15.597  15.9322 15.8955  L 15.3004 15.1381  C 15.7726 14.6194  16.4767 14.3999  17.0952 14.3999  Z M 9.0004 3.1499  C 12.2313 3.1499  14.8504 5.769  14.8504 8.9999  C 14.8504 12.2308  12.2313 14.8499  9.0004 14.8499  C 5.7695 14.8499  3.1504 12.2308  3.1504 8.9999  C 3.1504 5.769  5.7695 3.1499  9.0004 3.1499  Z " fill-rule="nonzero" fill="#4a5466" stroke="none" transform="matrix(1 0 0 1 9 11 )" />
  </g>
</svg>