<?xml version="1.0" encoding="utf-8"?>
<svg version="1.1" xmlns:xlink="http://www.w3.org/1999/xlink" width="19px" height="18px" xmlns="http://www.w3.org/2000/svg">
  <g transform="matrix(1 0 0 1 -3 -3 )">
    <path d="M 7 0  C 8.66 0  10 1.34  10 3  C 10 4.66  8.66 6  7 6  C 5.34 6  4 4.66  4 3  C 4 1.34  5.34 0  7 0  Z M 0 14  L 0 11.5  C 0 9.5  3.5 7.9  7 7.9  C 8.0636 7.9  9.1271 8.0477  10.0925 8.3096  C 7.7139 9.1066  6 11.3531  6 14  L 0 14  Z M 12.51 18  L 19 11.5  L 17.5 10  L 12.51 15  L 10.5 13  L 9 14.5  L 12.51 18  Z " fill-rule="nonzero" fill="#f96d1f" stroke="none" transform="matrix(1 0 0 1 3 3 )" />
  </g>
</svg>