<?xml version="1.0" encoding="utf-8"?>
<svg version="1.1" xmlns:xlink="http://www.w3.org/1999/xlink" width="19px" height="18px" xmlns="http://www.w3.org/2000/svg">
  <g transform="matrix(1 0 0 1 -3 -3 )">
    <path d="M 19 2  C 19 0.9  18.1 0  17 0  L 2 0  C 0.9 0  0 0.9  0 2  L 0 16  C 0 17.1  0.9 18  2 18  L 17 18  C 18.1 18  19 17.1  19 16  L 19 2  Z M 2 2  L 17 2  L 17 5  L 2 5  L 2 2  Z M 12 7  L 12 16  L 7 16  L 7 7  L 12 7  Z M 2 16  L 2 7  L 5 7  L 5 16  L 2 16  Z M 17 16  L 14 16  L 14 7  L 17 7  L 17 16  Z " fill-rule="nonzero" fill="#f96d1f" stroke="none" transform="matrix(1 0 0 1 3 3 )" />
  </g>
</svg>