<?xml version="1.0" encoding="utf-8"?>
<svg version="1.1" xmlns:xlink="http://www.w3.org/1999/xlink" width="18px" height="18px" xmlns="http://www.w3.org/2000/svg">
  <g transform="matrix(1 0 0 1 -3 -3 )">
    <path d="M 17.4900000198363 16.0000000777893  L 12.5000002139206 11.0000002722626  L 11.7100002446474 11.0000002722626  L 11.4300002555379 10.7300002827642  C 12.4439002161026 9.55400032850429  13.0011001944305 8.05270038689684  13.0000001944733 6.50000044728858  C 13.0000001944733 5.21442049729078  12.6188002092999 3.9577205461697  11.9046002370785 2.88880058774498  C 11.190300264861 1.81988062932026  10.1752003043429 0.986760661724175  8.98740035054201 0.494790680859181  C 7.79970039673719 0.00282069999418629  6.49279044756901 -0.125909294998904  5.23192049661012 0.124900695245926  C 3.97104054565162 0.375700685491146  2.81285059069903 0.994770661412629  1.90381062605583 1.90381062605583  C 0.994770661412629 2.81285059069903  0.375700685491146 3.97104054565162  0.124900695245926 5.23192049661012  C -0.125909294998904 6.49279044756901  0.00282069999418629 7.79970039673719  0.494790680859181 8.98740035054201  C 0.986760661724175 10.1752003043429  1.81988062932026 11.190300264861  2.88880058774498 11.9046002370785  C 3.9577205461697 12.6188002092999  5.21442049729078 13.0000001944733  6.50000044728858 13.0000001944733  C 8.11000038466818 13.0000001944733  9.59000032710409 12.4100002174211  10.7300002827642 11.4300002555379  L 11.0000002722626 11.7100002446474  L 11.0000002722626 12.5000002139206  L 16.0000000777893 17.4900000198363  L 17.4900000198363 16.0000000777893  Z M 11.0000002722626 6.50000044728858  C 11.0000002722626 8.99000035044088  8.99000035044088 11.0000002722626  6.50000044728858 11.0000002722626  C 4.01000054413629 11.0000002722626  2.00000062231455 8.99000035044088  2.00000062231455 6.50000044728858  C 2.00000062231455 4.01000054413629  4.01000054413629 2.00000062231455  6.50000044728858 2.00000062231455  C 8.99000035044088 2.00000062231455  11.0000002722626 4.01000054413629  11.0000002722626 6.50000044728858  Z " fill-rule="nonzero" fill="#f96d1f" stroke="none" transform="matrix(1 0 0 1 3 3 )" />
  </g>
</svg>