<?xml version="1.0" encoding="utf-8"?>
<svg version="1.1" xmlns:xlink="http://www.w3.org/1999/xlink" width="22px" height="22px" xmlns="http://www.w3.org/2000/svg">
  <g transform="matrix(1 0 0 1 -2 0 )">
    <path d="M 0.00999999999999979 4  C 0.00999999999999979 2.9  0.9 2  2 2  L 14.1 2  C 14.0344 2.32311  14 2.65753  14 3  C 14 3.34247  14.0344 3.67689  14.1 4  L 2 4  L 2 17.17  L 3.17 16  L 18 16  L 18 7.89998  C 18.3231 7.96557  18.6575 8  19 8  C 19.3425 8  19.6769 7.96557  20 7.89998  L 20 16  C 20 17.1  19.1 18  18 18  L 4 18  L 0 22  L 0.00999999999999979 4  Z M 16 3  C 16 4.65685  17.3431 6  19 6  C 20.6569 6  22 4.65685  22 3  C 22 1.34315  20.6569 0  19 0  C 17.3431 0  16 1.34315  16 3  Z M 5 8  L 5 6  L 15 6.00049  L 15 8  L 5 8  Z M 5 14  L 5 12  L 15 12  L 15 14  L 5 14  Z M 5 11  L 5 9  L 15 9  L 15 11  L 5 11  Z " fill-rule="nonzero" fill="#f96d1f" stroke="none" transform="matrix(1 0 0 1 2 0 )" />
  </g>
</svg>