<svg width="24" height="24" viewBox="0 0 24 24" fill="none" xmlns="http://www.w3.org/2000/svg">
<path fill-rule="evenodd" clip-rule="evenodd" d="M21 6C22.6569 6 24 4.65685 24 3C24 1.34315 22.6569 0 21 0C19.3431 0 18 1.34315 18 3C18 4.65685 19.3431 6 21 6ZM4 2H16.1C16.0344 2.32311 16 2.65753 16 3C16 3.34247 16.0344 3.67689 16.1 4H4V17.17L5.17 16H20V7.89998C20.3231 7.96557 20.6575 8 21 8C21.3425 8 21.6769 7.96557 22 7.89998V16C22 17.1 21.1 18 20 18H6L2 22L2.01 4C2.01 2.9 2.9 2 4 2ZM7 6H16.9996L17 6.00049V8H7V6ZM7 12H17V14H7V12ZM7 9H17V11H7V9Z" fill="#E6E9F0"/>
</svg>
