<svg width="32" height="32" viewBox="0 0 32 32" fill="none" xmlns="http://www.w3.org/2000/svg">
<path d="M16.0001 2.66666C8.64008 2.66666 2.66675 8.63999 2.66675 16C2.66675 23.36 8.64008 29.3333 16.0001 29.3333C23.3601 29.3333 29.3334 23.36 29.3334 16C29.3334 8.63999 23.3601 2.66666 16.0001 2.66666ZM16.0001 6.66666C18.2134 6.66666 20.0001 8.45332 20.0001 10.6667C20.0001 12.88 18.2134 14.6667 16.0001 14.6667C13.7867 14.6667 12.0001 12.88 12.0001 10.6667C12.0001 8.45332 13.7867 6.66666 16.0001 6.66666ZM16.0001 25.6C14.4159 25.6 12.8563 25.208 11.4605 24.4588C10.0646 23.7097 8.87578 22.6268 8.00008 21.3067C8.04008 18.6533 13.3334 17.2 16.0001 17.2C18.6534 17.2 23.9601 18.6533 24.0001 21.3067C23.1244 22.6268 21.9356 23.7097 20.5397 24.4588C19.1438 25.208 17.5843 25.6 16.0001 25.6Z" fill="#318ED8"/>
</svg>
