<svg width="164" height="24" viewBox="0 0 164 24" fill="none" xmlns="http://www.w3.org/2000/svg">
<path d="M11.2864 11.2864H5.64532C2.52587 11.2864 0 8.76057 0 5.64533C0 2.52587 2.52587 0 5.64532 0C8.76057 0 11.2906 2.52587 11.2906 5.64533V11.2864H11.2864Z" fill="#93E0F7"/>
<path d="M12.7094 11.2864V5.64532C12.7094 2.52587 15.2352 0 18.3505 0C21.4699 0 23.9958 2.52587 23.9958 5.64532C23.9958 8.76057 21.4699 11.2906 18.3505 11.2906H12.7094V11.2864Z" fill="#8DF3FF"/>
<path d="M12.7093 12.7094H18.3546C21.4699 12.7094 23.9999 15.2352 23.9999 18.3547C23.9957 21.4699 21.4699 23.9958 18.3504 23.9958C15.2352 23.9958 12.7051 21.4699 12.7051 18.3505V12.7094H12.7093Z" fill="#6AC4EA"/>
<path d="M11.2864 12.7093V18.3547C11.2864 21.4699 8.76057 24 5.64112 24C2.52587 23.9958 0 21.4699 0 18.3505C0 15.2352 2.52587 12.7051 5.64533 12.7051H11.2864V12.7093Z" fill="#5CBDFF"/>
<path d="M45.3218 19.7921H41.0997V13.4525H36.2221V19.7857H32V4.24577H36.2221V10.0055H41.0997V4.24577H45.3218V19.7921Z" fill="white"/>
<path d="M58.0764 19.792L57.3139 16.8807H52.2663L51.4786 19.792H46.8657L51.9386 4.18905H57.5408L62.6767 19.792H58.0764ZM56.4443 13.4336L55.7763 10.8814C55.6188 10.3143 55.4297 9.5833 55.2092 8.68216C54.9886 7.78101 54.8374 7.13824 54.768 6.74754C54.705 7.10673 54.579 7.70539 54.3899 8.53092C54.2009 9.36274 53.785 10.9949 53.1422 13.4336H56.4443Z" fill="white"/>
<path d="M68.4237 14.1331V19.7857H64.2268V4.24577H69.3186C73.5407 4.24577 75.6518 5.77708 75.6518 8.8397C75.6518 10.642 74.7758 12.0347 73.0177 13.0177L77.5486 19.7921H72.7845L69.4887 14.1394H68.4237V14.1331ZM68.4237 10.976H69.2115C70.6797 10.976 71.4107 10.3269 71.4107 9.02875C71.4107 7.95746 70.6923 7.42182 69.2556 7.42182H68.4237V10.976Z" fill="white"/>
<path d="M85.7408 19.7921L82.5648 8.60024H82.4702C82.6215 10.5097 82.6908 11.9905 82.6908 13.0429V19.7921H78.9728V4.24577H84.5624L87.8078 15.28H87.8897L91.0657 4.24577H96.6679V19.7857H92.8113V12.9736C92.8113 12.6207 92.8176 12.2237 92.8302 11.7952C92.8428 11.3604 92.8869 10.3017 92.9751 8.61914H92.8806L89.7424 19.7921H85.7408Z" fill="white"/>
<path d="M114.168 11.9968C114.168 14.6121 113.525 16.5971 112.246 17.9583C110.96 19.3194 109.082 20 106.612 20C104.173 20 102.308 19.3131 101.004 17.9456C99.7054 16.5782 99.05 14.5868 99.05 11.9716C99.05 9.38795 99.6991 7.40922 100.991 6.04805C102.283 4.68688 104.167 4 106.631 4C109.101 4 110.979 4.67428 112.252 6.02915C113.531 7.39031 114.168 9.37534 114.168 11.9968ZM103.474 11.9968C103.474 15.0028 104.52 16.5026 106.612 16.5026C107.677 16.5026 108.465 16.1371 108.975 15.4061C109.492 14.6751 109.744 13.5408 109.744 11.9905C109.744 10.4403 109.486 9.29342 108.963 8.54982C108.44 7.81252 107.664 7.44072 106.631 7.44072C104.526 7.44703 103.474 8.96573 103.474 11.9968Z" fill="white"/>
<path d="M130.968 19.7921H125.46L119.783 8.846H119.688C119.82 10.5664 119.89 11.8834 119.89 12.7909V19.7984H116.172V4.24577H121.654L127.307 15.0469H127.37C127.269 13.4778 127.219 12.2237 127.219 11.2722V4.24577H130.962V19.7921H130.968Z" fill="white"/>
<path d="M133.98 19.7921V4.24577H138.202V19.7857H133.98V19.7921Z" fill="white"/>
<path d="M152.501 19.7921H140.396V17.1958L147.126 7.63608H140.553V4.24577H152.331V6.82946L145.601 16.3954H152.501V19.7921Z" fill="white"/>
<path d="M163.819 19.7921H154.593V4.24577H163.819V7.61717H158.79V10.0622H163.447V13.4336H158.79V16.3702H163.819V19.7921Z" fill="white"/>
</svg>
