<svg width="24" height="24" viewBox="0 0 24 24" fill="none" xmlns="http://www.w3.org/2000/svg">
<path fill-rule="evenodd" clip-rule="evenodd" d="M12 2C13.3133 2 14.5677 2.25358 15.7169 2.7144C15.3382 3.25737 15.0907 3.89869 15.0205 4.59237C14.088 4.21057 13.0681 4 12 4C7.59 4 4 7.59 4 12C4.00131 13.7464 4.57765 15.4438 5.64 16.83C7.07 15.09 10.54 14.5 12 14.5C13.46 14.5 16.93 15.09 18.36 16.83C19.38 15.49 20 13.82 20 12C20 10.9319 19.7894 9.91199 19.4076 8.97949C20.1013 8.90927 20.7426 8.66182 21.2856 8.28312C21.7464 9.43233 22 10.6867 22 12C22 17.52 17.52 22 12 22C6.48 22 2 17.52 2 12C2 6.48 6.48 2 12 2ZM7.07 18.28C7.5 17.38 10.12 16.5 12 16.5C13.88 16.5 16.51 17.38 16.93 18.28C15.57 19.36 13.86 20 12 20C10.14 20 8.43 19.36 7.07 18.28ZM12 6C10.06 6 8.5 7.56 8.5 9.5C8.5 11.44 10.06 13 12 13C13.94 13 15.5 11.44 15.5 9.5C15.5 7.56 13.94 6 12 6ZM12 11C11.17 11 10.5 10.33 10.5 9.5C10.5 8.67 11.17 8 12 8C12.83 8 13.5 8.67 13.5 9.5C13.5 10.33 12.83 11 12 11ZM19 8C20.6569 8 22 6.65685 22 5C22 3.34315 20.6569 2 19 2C17.3431 2 16 3.34315 16 5C16 6.65685 17.3431 8 19 8Z" fill="#E6E9F0"/>
</svg>
