<?xml version="1.0" encoding="utf-8"?>
<svg version="1.1" xmlns:xlink="http://www.w3.org/1999/xlink" width="20px" height="20px" xmlns="http://www.w3.org/2000/svg">
  <g transform="matrix(1 0 0 1 -2 -2 )">
    <path d="M 0 10  C 0 4.48  4.48 0  10 0  C 11.3133 0  12.5677 0.25358  13.7169 0.7144  C 13.3382 1.25737  13.0907 1.89869  13.0205 2.59237  C 12.088 2.21057  11.0681 2  10 2  C 5.59 2  2 5.59  2 10  C 2.00131 11.7464  2.57765 13.4438  3.64 14.83  C 5.07 13.09  8.54 12.5  10 12.5  C 11.46 12.5  14.93 13.09  16.36 14.83  C 17.38 13.49  18 11.82  18 10  C 18 8.9319  17.7894 7.91199  17.4076 6.97949  C 18.1013 6.90927  18.7426 6.66182  19.2856 6.28312  C 19.7464 7.43233  20 8.6867  20 10  C 20 15.52  15.52 20  10 20  C 4.48 20  0 15.52  0 10  Z M 13.5 7.5  C 13.5 5.56  11.94 4  10 4  C 8.06 4  6.5 5.56  6.5 7.5  C 6.5 9.44  8.06 11  10 11  C 11.94 11  13.5 9.44  13.5 7.5  Z M 10 14.5  C 8.12 14.5  5.5 15.38  5.07 16.28  C 6.43 17.36  8.14 18  10 18  C 11.86 18  13.57 17.36  14.93 16.28  C 14.51 15.38  11.88 14.5  10 14.5  Z M 14 3  C 14 4.65685  15.3431 6  17 6  C 18.6569 6  20 4.65685  20 3  C 20 1.34315  18.6569 0  17 0  C 15.3431 0  14 1.34315  14 3  Z M 11.5 7.5  C 11.5 8.33  10.83 9  10 9  C 9.17 9  8.5 8.33  8.5 7.5  C 8.5 6.67  9.17 6  10 6  C 10.83 6  11.5 6.67  11.5 7.5  Z " fill-rule="nonzero" fill="#f96d1f" stroke="none" transform="matrix(1 0 0 1 2 2 )" />
  </g>
</svg>