<?xml version="1.0" encoding="utf-8"?>
<svg version="1.1" xmlns:xlink="http://www.w3.org/1999/xlink" width="28px" height="28px" xmlns="http://www.w3.org/2000/svg">
  <g transform="matrix(1 0 0 1 -1216 -14 )">
    <path d="M 27.3334 14  C 27.3334 6.63999  21.3601 0.66666  14.0001 0.66666  C 6.64008 0.66666  0.66675 6.63999  0.66675 14  C 0.66675 21.36  6.64008 27.3333  14.0001 27.3333  C 21.3601 27.3333  27.3334 21.36  27.3334 14  Z M 10.0001 8.6667  C 10.0001 6.45332  11.7867 4.66666  14.0001 4.66666  C 16.2134 4.66666  18.0001 6.45332  18.0001 8.6667  C 18.0001 10.88  16.2134 12.6667  14.0001 12.6667  C 11.7867 12.6667  10.0001 10.88  10.0001 8.6667  Z M 18.5397 22.4588  C 17.1438 23.208  15.5843 23.6  14.0001 23.6  C 12.4159 23.6  10.8563 23.208  9.4605 22.4588  C 8.0646 21.7097  6.87578 20.6268  6.00008 19.3067  C 6.04008 16.6533  11.3334 15.2  14.0001 15.2  C 16.6534 15.2  21.9601 16.6533  22.0001 19.3067  C 21.1244 20.6268  19.9356 21.7097  18.5397 22.4588  Z " fill-rule="nonzero" fill="#14cc70" stroke="none" transform="matrix(1 0 0 1 1216 14 )" />
  </g>
</svg>