<?xml version="1.0" encoding="utf-8"?>
<svg version="1.1" xmlns:xlink="http://www.w3.org/1999/xlink" width="22px" height="22px" xmlns="http://www.w3.org/2000/svg">
  <g transform="matrix(1 0 0 1 -803 -23 )">
    <path d="M 21.4762428571429 11  C 21.4762428571429 5.217135  16.7829357142857 0.523804285714286  11.0000785714286 0.523804285714286  C 5.21720571428571 0.523804285714286  0.523875 5.217135  0.523875 11  C 0.523875 16.7828571428571  5.21720571428571 21.4761642857143  11.0000785714286 21.4761642857143  C 16.7829357142857 21.4761642857143  21.4762428571429 16.7828571428571  21.4762428571429 11  Z M 7.85722142857143 6.80955  C 7.85722142857143 5.07046571428571  9.26097857142857 3.66666142857143  11.0000785714286 3.66666142857143  C 12.7391 3.66666142857143  14.1429357142857 5.07046571428571  14.1429357142857 6.80955  C 14.1429357142857 8.54857142857143  12.7391 9.95240714285714  11.0000785714286 9.95240714285714  C 9.26097857142857 9.95240714285714  7.85722142857143 8.54857142857143  7.85722142857143 6.80955  Z M 14.5669071428571 17.6462  C 13.4701285714286 18.2348571428571  12.2448071428571 18.5428571428571  11.0000785714286 18.5428571428571  C 9.75535 18.5428571428571  8.52995 18.2348571428571  7.43325 17.6462  C 6.33647142857143 17.0576214285714  5.40239857142857 16.2067714285714  4.71434857142857 15.16955  C 4.74577714285714 13.0847357142857  8.90481428571428 11.9428571428571  11.0000785714286 11.9428571428571  C 13.0848142857143 11.9428571428571  17.2543642857143 13.0847357142857  17.2857928571429 15.16955  C 16.5977428571429 16.2067714285714  15.6636857142857 17.0576214285714  14.5669071428571 17.6462  Z " fill-rule="nonzero" fill="#318ed8" stroke="none" transform="matrix(1 0 0 1 803 23 )" />
  </g>
</svg>