<?xml version="1.0" encoding="utf-8"?>
<svg version="1.1" xmlns:xlink="http://www.w3.org/1999/xlink" width="14px" height="20px" xmlns="http://www.w3.org/2000/svg">
  <g transform="matrix(1 0 0 1 -5 -442 )">
    <path d="M 7 4.49999978542329  C 8.38071098459033 4.49999978542329  9.49999959128246 5.61928769973337  9.49999959128246 6.99999942779544  C 9.49999959128246 8.38071115585751  8.38071098459033 9.49999907016759  7 9.49999907016759  C 5.6192875848983 9.49999907016759  4.49999969346185 8.38071115585751  4.49999969346185 6.99999942779544  C 4.49999969346185 5.61928769973337  5.6192875848983 4.49999978542329  7 4.49999978542329  Z M 7 20  C 7 20  0 12.2499998927116  0 7.00000014305114  C 0 3.13000008440017  3.13000002043588 0  7 0  C 10.8699996219363 0  14 3.13000008440017  14 7.00000014305114  C 14 12.2499998927116  7 20  7 20  Z M 11.9999991825649 7.00000014305114  C 11.9999991825649 4.24000004577637  9.75999932561606 1.99999996423721  7 1.99999996423721  C 4.23999995912825 1.99999996423721  1.99999992336546 4.24000004577637  1.99999992336546 7.00000014305114  C 1.99999992336546 9.84999943494799  4.91999997956412 14.2099993605614  7 16.8799988327027  C 9.11999926430843 14.1899993805886  11.9999991825649 9.88000012016296  11.9999991825649 7.00000014305114  Z " fill-rule="nonzero" fill="#e05174" stroke="none" transform="matrix(1 0 0 1 5 442 )" />
  </g>
</svg>