<?xml version="1.0" encoding="utf-8"?>
<svg version="1.1" xmlns:xlink="http://www.w3.org/1999/xlink" width="20px" height="20px" xmlns="http://www.w3.org/2000/svg">
  <g transform="matrix(1 0 0 1 -2 -250 )">
    <path d="M 20 10  C 20 4.48000001907349  15.5199999809265 0  10 0  C 4.48000001907349 0  0 4.48000001907349  0 10  C 0 15.5199999809265  4.48000001907349 20  10 20  C 15.5199999809265 20  20 15.5199999809265  20 10  Z M 10 18  C 8.13999998569489 18  6.43000018596649 17.3600007295609  5.07000017166138 16.2800006866455  C 5.50000017881393 15.3800007104874  8.12000000476837 14.5  10 14.5  C 11.8799999952316 14.5  14.5100003182888 15.3800007104874  14.9300003051758 16.2800006866455  C 13.5700002908707 17.3600007295609  11.8600000143051 18  10 18  Z M 16.3600006103516 14.8299999237061  C 14.9300006628036 13.0899999141693  11.460000038147 12.5  10 12.5  C 8.53999996185303 12.5  5.06999981403351 13.0899999141693  3.6399998664856 14.8299999237061  C 2.57765257358551 13.4438387155533  2.00130743486807 11.7464314699173  2 10  C 2 5.59000015258789  5.59000015258789 2  10 2  C 14.4099998474121 2  18 5.59000015258789  18 10  C 18 11.8200000524521  17.3800005912781 13.4899998903275  16.3600006103516 14.8299999237061  Z M 13.5 7.5  C 13.5 5.55999994277954  11.9400000572205 4  10 4  C 8.05999994277954 4  6.5 5.55999994277954  6.5 7.5  C 6.5 9.44000005722046  8.05999994277954 11  10 11  C 11.9400000572205 11  13.5 9.44000005722046  13.5 7.5  Z M 11.5 7.5  C 11.5 8.3299999833107  10.8299999833107 9  10 9  C 9.1700000166893 9  8.5 8.3299999833107  8.5 7.5  C 8.5 6.6700000166893  9.1700000166893 6  10 6  C 10.8299999833107 6  11.5 6.6700000166893  11.5 7.5  Z " fill-rule="nonzero" fill="#e05174" stroke="none" transform="matrix(1 0 0 1 2 250 )" />
  </g>
</svg>