<?xml version="1.0" encoding="utf-8"?>
<svg version="1.1" xmlns:xlink="http://www.w3.org/1999/xlink" width="18px" height="20px" xmlns="http://www.w3.org/2000/svg">
  <g transform="matrix(1 0 0 1 -313 -769 )">
    <path d="M 18 4  C 18 2.89999997615814  17.1000000238419 2  16 2  C 16 2  15 2  15 2  L 15 0  L 13 0  L 13 2  L 5 2  L 5 0  L 3 0  L 3 2  C 3 2  2 2  2 2  C 0.889999985694885 2  0.00999999046325684 2.89999997615814  0.00999999046325684 4  C 0.00999999046325684 4  0 18  0 18  C 0 18.5304329991341  0.210713595151901 19.039140433073  0.58578634262085 19.414213180542  C 0.960859090089798 19.7892859280109  1.46956700086594 20  2 20  C 2 20  16 20  16 20  C 17.1000000238419 20  18 19.1000000238419  18 18  C 18 18  18 4  18 4  Z M 16 7  L 16 18  L 2 18  L 2 7  L 16 7  Z M 4 14  L 4 9  L 9 9  L 9 14  L 4 14  Z " fill-rule="nonzero" fill="#e05174" stroke="none" transform="matrix(1 0 0 1 313 769 )" />
  </g>
</svg>