<?xml version="1.0" encoding="utf-8"?>
<svg version="1.1" xmlns:xlink="http://www.w3.org/1999/xlink" width="24px" height="9px" xmlns="http://www.w3.org/2000/svg">
  <g transform="matrix(1 0 0 1 -204 -527 )">
    <path d="M 16.5900001525879 2.77313733997834  C 15.1500000953674 2.28555268187006  13.6000000238419 2.0316027875277  12 2.0316027875277  C 10.3999999761581 2.0316027875277  8.85000014305115 2.28555340842783  7.40000009536743 2.76298006228591  C 7.40000009536743 2.76298006228591  7.40000009536743 5.91196380170764  7.40000009536743 5.91196380170764  C 7.40000009536743 6.30812633074438  7.17000016570091 6.6636574179719  6.84000015258789 6.82618563734132  C 5.8600001335144 7.32392832997305  4.9699998497963 7.96388259773574  4.17999982833862 8.70541763455823  C 3.99999982118607 8.8882618927013  3.75000002980232 8.98984272230757  3.48000001907349 8.98984272230757  C 3.20000001788139 8.98984272230757  2.94999998807907 8.87810461500887  2.76999998092651 8.6952603568658  C 2.76999998092651 8.6952603568658  0.28999999165535 6.17607239658473  0.28999999165535 6.17607239658473  C 0.109999984502792 6.00338615782848  0 5.74943600616358  0 5.46501161469877  C 0 5.18058722323396  0.109999984502792 4.92663684451976  0.28999999165535 4.74379258637669  C 3.33999994397163 1.80812645183735  7.46000003814697 0  12 0  C 16.539999961853 0  20.6599991321564 1.80812645183735  23.7099990844727 4.74379258637669  C 23.8899990916252 4.92663684451976  24 5.18058722323396  24 5.46501161469877  C 24 5.74943600616358  23.8899990916252 6.00338638487778  23.7099990844727 6.18623064302085  C 23.7099990844727 6.18623064302085  21.2299995422363 8.70541763455823  21.2299995422363 8.70541763455823  C 21.0499995350838 8.8882618927013  20.8000004589558 9  20.5200004577637 9  C 20.2500004470348 9  19.9999997019768 8.88826211975061  19.8199996948242 8.71557588099436  C 19.0299996733665 7.96388283992167  18.1299996376038 7.33408560766548  17.1499996185303 6.83634291503375  C 16.8199996054173 6.67381469566432  16.5900001525879 6.32844261170395  16.5900001525879 5.92212204814376  C 16.5900001525879 5.92212204814376  16.5900001525879 2.77313733997834  16.5900001525879 2.77313733997834  Z " fill-rule="nonzero" fill="#ffffff" stroke="none" transform="matrix(1 0 0 1 204 527 )" />
  </g>
</svg>