<?xml version="1.0" encoding="utf-8"?>
<svg version="1.1" xmlns:xlink="http://www.w3.org/1999/xlink" width="20px" height="20px" xmlns="http://www.w3.org/2000/svg">
  <g transform="matrix(1 0 0 1 -26 -770 )">
    <path d="M 20 6  C 20 4.89999997615814  19.1000000238419 4  18 4  C 18 4  14 4  14 4  C 14 4  14 2  14 2  C 14 0.899999976158142  13.1000000238419 0  12 0  C 12 0  8 0  8 0  C 6.89999997615814 0  6 0.899999976158142  6 2  C 6 2  6 4  6 4  C 6 4  2 4  2 4  C 0.899999976158142 4  0 4.89999997615814  0 6  C 0 6  0 18  0 18  C 0 19.1000000238419  0.899999976158142 20  2 20  C 2 20  18 20  18 20  C 19.1000000238419 20  20 19.1000000238419  20 18  C 20 18  20 6  20 6  Z M 8 4  L 8 2  L 12 2  L 12 4  L 8 4  Z M 18 6  L 18 18  L 2 18  L 2 6  L 18 6  Z " fill-rule="nonzero" fill="#e05174" stroke="none" transform="matrix(1 0 0 1 26 770 )" />
  </g>
</svg>