<?xml version="1.0" encoding="utf-8"?>
<svg version="1.1" xmlns:xlink="http://www.w3.org/1999/xlink" width="19px" height="19px" xmlns="http://www.w3.org/2000/svg">
  <g transform="matrix(1 0 0 1 -10 -10 )">
    <path d="M 19 15.1800003051758  L 19 4.5  L 15 8.5  C 15 8.5  15 5  15 5  C 15 4.44999998807907  14.5500000119209 4  14 4  C 14 4  7.81999969482422 4  7.81999969482422 4  L 19 15.1800003051758  Z M 19 17.7299995422363  L 1.26999998092651 0  L 0 1.26999998092651  L 2.73000001907349 4  C 2.73000001907349 4  2 4  2 4  C 1.44999998807907 4  1 4.44999998807907  1 5  C 1 5  1 15  1 15  C 1 15.5500000119209  1.44999998807907 16  2 16  C 2 16  14 16  14 16  C 14.2099999934435 16  14.3900009095669 15.9199996963143  14.5400009155273 15.8199996948242  C 14.5400009155273 15.8199996948242  17.7299995422363 19  17.7299995422363 19  L 19 17.7299995422363  Z " fill-rule="nonzero" fill="#4a5466" stroke="none" transform="matrix(1 0 0 1 10 10 )" />
  </g>
</svg>