<?xml version="1.0" encoding="utf-8"?>
<svg version="1.1" xmlns:xlink="http://www.w3.org/1999/xlink" width="18px" height="20px" xmlns="http://www.w3.org/2000/svg">
  <g transform="matrix(1 0 0 1 -27 -57 )">
    <path d="M 18 4  C 18 2.89999997615814  17.1000000238419 2  16 2  C 16 2  11.8199996948242 2  11.8199996948242 2  C 11.3999997079372 0.840000033378601  10.2999999523163 0  9 0  C 7.70000004768372 0  6.60000029206276 0.840000033378601  6.18000030517578 2  C 6.18000030517578 2  2 2  2 2  C 0.899999976158142 2  0 2.89999997615814  0 4  C 0 4  0 18  0 18  C 0 19.1000000238419  0.899999976158142 20  2 20  C 2 20  16 20  16 20  C 17.1000000238419 20  18 19.1000000238419  18 18  C 18 18  18 4  18 4  Z M 8.44999980926514 2  C 8.58999980986118 1.84999999403954  8.78000000119209 1.75  9 1.75  C 9.21999999880791 1.75  9.41000019013882 1.84999999403954  9.55000019073486 2  C 9.67000018805265 2.12999999523163  9.75 2.31000000238419  9.75 2.5  C 9.75 2.90999999642372  9.40999999642372 3.25  9 3.25  C 8.59000000357628 3.25  8.25 2.90999999642372  8.25 2.5  C 8.25 2.31000000238419  8.32999981194735 2.12999999523163  8.44999980926514 2  Z M 16 4  L 16 18  L 2 18  L 2 4  L 16 4  Z M 12 8  C 12 6.35000002384186  10.6499999761581 5  9 5  C 7.35000002384186 5  6 6.35000002384186  6 8  C 6 9.64999997615814  7.35000002384186 11  9 11  C 10.6499999761581 11  12 9.64999997615814  12 8  Z M 10 8  C 10 8.55000001192093  9.55000001192093 9  9 9  C 8.44999998807907 9  8 8.55000001192093  8 8  C 8 7.44999998807907  8.44999998807907 7  9 7  C 9.55000001192093 7  10 7.44999998807907  10 8  Z M 9 11.8900003433228  C 6.97000002861023 11.8900003433228  3 12.9599993228912  3 15.4699993133545  C 3 15.4699993133545  3 17  3 17  L 15 17  C 15 17  15 15.4699993133545  15 15.4699993133545  C 15 12.9699993133545  11.0299999713898 11.8900003433228  9 11.8900003433228  Z M 12.6899995803833 15  C 12.6899995803833 15  5.3100004196167 15  5.3100004196167 15  C 6.00000041723251 14.4399999976158  7.69000005722046 13.8800001144409  9 13.8800001144409  C 10.3099999427795 13.8800001144409  12.0099995732307 14.4399999976158  12.6899995803833 15  Z " fill-rule="nonzero" fill="#e05174" stroke="none" transform="matrix(1 0 0 1 27 57 )" />
  </g>
</svg>