<?xml version="1.0" encoding="utf-8"?>
<svg version="1.1" xmlns:xlink="http://www.w3.org/1999/xlink" width="18px" height="19px" xmlns="http://www.w3.org/2000/svg">
  <g transform="matrix(1 0 0 1 -11 -10 )">
    <path d="M 16 9  C 16 9  14.2999992370605 9  14.2999992370605 9  C 14.2999992370605 9.74000000953674  14.1400008499622 10.4300001859665  13.8700008392334 11.0500001907349  C 13.8700008392334 11.0500001907349  15.1000003814697 12.2799997329712  15.1000003814697 12.2799997329712  C 15.6600003838539 11.2999997138977  16 10.1900000572205  16 9  Z M 6 3.17999982833862  C 6 3.17999982833862  11.9799995422363 9.17000007629395  11.9799995422363 9.17000007629395  C 11.9799995422363 9.11000007763505  12 9.0599999986589  12 9  C 12 9  12 3  12 3  C 12 1.3400000333786  10.6599999666214 0  9 0  C 7.3400000333786 0  6 1.3400000333786  6 3  C 6 3  6 3.17999982833862  6 3.17999982833862  Z M 18 17.7299995422363  L 1.26999998092651 1  L 0 2.26999998092651  L 6.01000022888184 8.27999973297119  C 6.01000022888184 8.27999973297119  6.01000022888184 9  6.01000022888184 9  C 6.01000022888184 10.6599999666214  7.3400000333786 12  9 12  C 9.21999999880791 12  9.43999962508678 11.970000077039  9.64999961853027 11.9200000762939  C 9.64999961853027 11.9200000762939  11.3100004196167 13.5799999237061  11.3100004196167 13.5799999237061  C 10.6000004410744 13.9099999368191  9.81000000238419 14.1000003814697  9 14.1000003814697  C 6.24000000953674 14.1000003814697  3.69999980926514 12  3.69999980926514 9  C 3.69999980926514 9  2 9  2 9  C 2 12.4100000858307  4.72000002861023 15.2299993038177  8 15.7199993133545  C 8 15.7199993133545  8 19  8 19  L 10 19  C 10 19  10 15.7199993133545  10 15.7199993133545  C 10.910000026226 15.5899993181229  11.7699999809265 15.2699996829033  12.539999961853 14.8199996948242  C 12.539999961853 14.8199996948242  16.7299995422363 19  16.7299995422363 19  L 18 17.7299995422363  Z " fill-rule="nonzero" fill="#4a5466" stroke="none" transform="matrix(1 0 0 1 11 10 )" />
  </g>
</svg>