<?xml version="1.0" encoding="utf-8"?>
<svg version="1.1" xmlns:xlink="http://www.w3.org/1999/xlink" width="21px" height="15px" xmlns="http://www.w3.org/2000/svg">
  <g transform="matrix(1 0 0 1 -32 -621 )">
    <path d="M 20.7063 2.51784  L 18.8063 0.61784  C 18.4158 0.22732  17.7826 0.22732  17.3921 0.61784  C 17.0016 1.00837  17.0016 1.64153  17.3921 2.03206  L 17.585 2.22495  L 14.7742 2.22495  C 11.8609 2.22495  9.4992 4.58665  9.4992 7.5  C 9.4992 9.3087  8.03295 10.775  6.22422 10.775  L 1.94922 10.775  C 1.39693 10.775  0.94922 11.2227  0.94922 11.775  C 0.94922 12.3272  1.39693 12.775  1.94922 12.775  L 6.22422 12.775  C 9.1375 12.775  11.4992 10.4133  11.4992 7.5  C 11.4992 5.6912  12.9655 4.22495  14.7742 4.22495  L 17.585 4.22495  L 17.3921 4.41784  C 17.0016 4.80837  17.0016 5.4415  17.3921 5.8321  C 17.7826 6.2226  18.4158 6.2226  18.8063 5.8321  L 20.7063 3.93206  C 21.0968 3.54153  21.0968 2.90837  20.7063 2.51784  Z M 17.585 12.7749  L 14.7742 12.7749  C 13.7427 12.7749  12.7803 12.4788  11.9674 11.9669  C 12.3765 11.4418  12.7152 10.8591  12.9692 10.2329  C 13.4867 10.5754  14.1072 10.7749  14.7742 10.7749  L 17.585 10.7749  L 17.3921 10.582  C 17.0016 10.1914  17.0016 9.5583  17.3921 9.1677  C 17.7826 8.7772  18.4158 8.7772  18.8063 9.1677  L 20.7063 11.0677  C 21.0968 11.4583  21.0968 12.0914  20.7063 12.482  L 18.8063 14.382  C 18.4158 14.7725  17.7826 14.7725  17.3921 14.382  C 17.0016 13.9914  17.0016 13.3583  17.3921 12.9677  L 17.585 12.7749  Z M 1.94922 2.22485  L 6.22422 2.22485  C 7.2562 2.22485  8.21896 2.5212  9.032 3.03342  C 8.623 3.55863  8.28442 4.14141  8.0305 4.76758  C 7.51273 4.4246  6.8918 4.22485  6.22422 4.22485  L 1.94922 4.22485  C 1.39693 4.22485  0.94922 3.77714  0.94922 3.22485  C 0.94922 2.67257  1.39693 2.22485  1.94922 2.22485  Z " fill-rule="nonzero" fill="#4a5466" stroke="none" transform="matrix(1 0 0 1 32 621 )" />
  </g>
</svg>